<svg width="974" height="299" viewBox="0 0 974 299" fill="none" xmlns="http://www.w3.org/2000/svg">
<path d="M221.266 292.712V152.858C221.266 122.987 211.734 107.393 193.116 107.393C171.461 107.393 159.773 124.274 159.773 154.594V292.727H110.416V154.16C110.416 119.515 102.619 107.393 80.9786 107.393C59.338 107.393 49.3712 122.553 49.3712 152.424V292.712H0V62.3469H47.6353V97.426C59.3236 68.8419 76.2194 56.2858 103.053 56.2858C126.864 56.2858 138.986 64.9507 154.146 93.0863C168.872 66.2381 183.583 56.2858 206.974 56.2858C245.077 56.2858 270.623 87.4592 270.623 133.359V292.698H221.266V292.712Z" fill="#FFFFF4"/>
<path d="M382.746 117.779C350.271 117.779 334.677 135.529 334.677 172.778V292.727H285.32V62.3469H332.956V103.487C347.682 68.408 361.106 56.2858 385.35 56.2858C387.52 56.2858 404.141 56.2858 409.768 57.1537V118.633C406.296 118.199 387.506 117.765 382.746 117.765V117.779Z" fill="#FFFFF4"/>
<path d="M506.731 295.302H500.236C463.869 295.302 450.011 281.877 450.011 245.511V118.633H424.465V57.1537H450.011V0H499.368V57.1537H530.541V118.633H499.368V230.785C499.368 246.813 502.406 249.402 519.721 249.402C522.759 249.402 524.914 249.402 530.541 248.534V294.434C513.66 295.302 512.358 295.302 506.731 295.302Z" fill="#FFFFF4"/>
<path d="M666.91 292.712V152.858C666.91 120.817 657.391 107.393 634.868 107.393C610.19 107.393 594.596 127.746 594.596 160.655V292.727H545.239V56.2858H592.875V97.426C606.299 68.8419 624.048 56.2858 650.896 56.2858C690.735 56.2858 716.281 86.1573 716.281 133.359V292.698H666.924L666.91 292.712Z" fill="#FFFFF4"/>
<path d="M852.793 292.712C849.755 281.458 849.321 277.986 848.034 265.43C828.549 290.108 812.535 298.773 788.276 298.773C751.91 298.773 729.387 272.793 729.387 231.219C729.387 189.645 749.306 164.532 784.805 158.037L829.402 149.806C841.524 147.636 846.718 141.575 846.718 130.755C846.718 113.44 836.331 104.775 815.978 104.775C795.625 104.775 786.107 113.44 783.069 136.816H735.433C741.494 77.9264 766.173 56.2714 818.133 56.2714C867.056 56.2714 895.206 80.9497 895.206 122.958V247.666C895.206 270.189 897.81 279.274 906.027 283.599V292.698H852.764L852.793 292.712ZM846.732 180.56C840.237 186.621 832.874 189.225 812.955 193.116C788.276 198.309 779.177 207.408 779.177 227.328C779.177 244.643 788.276 255.478 802.988 255.478C827.232 255.478 846.718 235.124 846.718 210.012V180.56H846.732Z" fill="#FFFFF4"/>
<path d="M920.737 292.712V229.063H974V292.712H920.737Z" fill="#FFFFF4"/>
</svg>
